<svg version="1.1" id="Layer_1" xmlns="http://www.w3.org/2000/svg" x="0" y="0" viewBox="0 0 1080 1080" style="enable-background:new 0 0 1080 1080" xml:space="preserve">
    <style>
    .st1 {
        fill: url(#SVGID_00000005971586704018073610000001859255013930710929_)
    }

    .st2 {
        fill: url(#SVGID_00000066488742442163778460000005992699245215033015_)
    }

    .st3 {
        fill: url(#SVGID_00000026873750219111095170000007634087295131815078_)
    }
    </style>
    <linearGradient id="SVGID_1_" gradientUnits="userSpaceOnUse" x1="344.743" y1="442.168" x2="264.769" y2="406.561">
        <stop offset=".004" style="stop-color:#754f9e" />
        <stop offset="1" style="stop-color:#6d4a94" />
    </linearGradient>
    <path d="M304.76 380.65c-24.17 0-43.77 19.57-43.77 43.72 0 24.14 19.6 43.72 43.77 43.72s43.77-19.57 43.77-43.72c-.01-24.15-19.6-43.72-43.77-43.72z" style="fill:url(#SVGID_1_)" />
    <g>
        <linearGradient id="SVGID_00000160151941809982969860000015154958500398318470_" gradientUnits="userSpaceOnUse" x1="675.985" y1="642.052" x2="45.997" y2="361.564">
            <stop offset="0" style="stop-color:#4f366b" />
            <stop offset=".326" style="stop-color:#624385" />
            <stop offset=".754" style="stop-color:#7851a2" />
            <stop offset="1" style="stop-color:#8056ad" />
        </linearGradient>
        <path style="fill:url(#SVGID_00000160151941809982969860000015154958500398318470_)" d="M570.97 306.67C517.62 168.55 362.41 99.83 224.29 153.19 86.17 206.54 17.46 361.75 70.81 499.87c53.35 138.12 435.39 462.77 465.04 451.32 29.65-11.46 88.48-506.41 35.12-644.52zM357.53 498.12c-50.8 19.62-107.88-5.65-127.5-56.45-19.62-50.79 5.65-107.88 56.45-127.5 50.79-19.62 107.88 5.65 127.5 56.45 19.62 50.79-5.65 107.87-56.45 127.5z" />
    </g>
    <g>
        <linearGradient id="SVGID_00000026861896869064313130000015851312654955321255_" gradientUnits="userSpaceOnUse" x1="763.168" y1="444.563" x2="682.425" y2="408.614">
            <stop offset="0" style="stop-color:#4b88bd" />
            <stop offset=".996" style="stop-color:#2da3c6" />
        </linearGradient>
        <path style="fill:url(#SVGID_00000026861896869064313130000015851312654955321255_)" d="M722.8 382.37c-24.4 0-44.17 19.8-44.17 44.22 0 24.42 19.78 44.22 44.17 44.22 24.4 0 44.17-19.8 44.17-44.22 0-24.43-19.78-44.22-44.17-44.22z" />
        <g>
            <linearGradient id="SVGID_00000049208981479680459220000008617248910896299932_" gradientUnits="userSpaceOnUse" x1="926.556" y1="658.365" x2="436.863" y2="440.339">
                <stop offset="0" style="stop-color:#8056ad" />
                <stop offset="1" style="stop-color:#01ccd3" />
            </linearGradient>
            <path style="fill:url(#SVGID_00000049208981479680459220000008617248910896299932_)" d="M843.44 153.19c-138.12-53.35-293.33 15.36-346.68 153.48-53.35 138.12 5.48 633.07 35.13 644.52 29.65 11.45 411.69-313.2 465.04-451.32 53.34-138.12-15.37-293.33-153.49-346.68zm-5.74 288.48c-19.62 50.8-76.71 76.07-127.5 56.45-50.8-19.62-76.07-76.71-56.45-127.5 19.62-50.8 76.71-76.07 127.5-56.45 50.8 19.62 76.07 76.71 56.45 127.5z" />
        </g>
    </g>
</svg>