<?xml version="1.0" standalone="no"?>
<!DOCTYPE svg PUBLIC "-//W3C//DTD SVG 20010904//EN"
 "http://www.w3.org/TR/2001/REC-SVG-20010904/DTD/svg10.dtd">
<svg version="1.0" xmlns="http://www.w3.org/2000/svg"
 width="260.000000pt" height="260.000000pt" viewBox="0 0 260.000000 260.000000"
 preserveAspectRatio="xMidYMid meet">
<metadata>
Created by potrace 1.14, written by Peter Selinger 2001-2017
</metadata>
<g transform="translate(0.000000,260.000000) scale(0.100000,-0.100000)"
fill="#000000" stroke="none">
<path d="M685 2245 c-171 -36 -301 -125 -401 -274 -89 -135 -124 -341 -83
-494 27 -101 112 -241 228 -372 109 -123 385 -389 561 -539 105 -90 292 -226
310 -226 28 0 294 206 460 355 119 107 332 321 412 414 137 158 210 279 234
388 11 53 12 188 2 243 -39 216 -201 410 -401 480 -228 80 -482 30 -646 -128
l-60 -57 -62 58 c-145 134 -360 193 -554 152z m213 -406 c45 -15 99 -63 124
-112 59 -117 1 -271 -121 -319 -176 -69 -360 99 -306 279 40 132 167 195 303
152z m951 6 c46 -10 107 -59 137 -110 59 -101 26 -235 -74 -302 -154 -105
-355 4 -356 192 -1 152 136 255 293 220z"/>
<path d="M725 1669 c-26 -13 -47 -46 -51 -79 -11 -89 106 -147 170 -84 14 15
26 29 27 33 0 3 2 17 5 29 6 33 -24 92 -53 103 -31 11 -72 11 -98 -2z"/>
<path d="M1684 1664 c-55 -27 -72 -98 -34 -150 52 -72 160 -49 179 37 11 50
-8 91 -52 112 -43 21 -53 21 -93 1z"/>
</g>
</svg>
